<svg width="266" height="503" viewBox="0 0 266 503" fill="none" xmlns="http://www.w3.org/2000/svg">
<path fill-rule="evenodd" clip-rule="evenodd" d="M5.17946 0.938654C2.66576 1.84133 1.3474 2.9733 0.536063 4.92498C-0.0879358 6.42603 -0.214232 496.698 0.408835 498.206C0.684718 498.874 1.80363 500.184 2.89551 501.119C5.69674 503.516 7.32875 503.426 13.0333 500.558C15.506 499.315 20.333 496.682 23.7605 494.707C27.1881 492.732 31.0677 490.53 32.3819 489.814C33.6961 489.097 36.1347 487.712 37.8007 486.736C40.4906 485.161 44.1507 483.133 52.7133 478.472C58.4416 475.354 60.2404 474.354 67.1599 470.434C71.1327 468.184 75.5873 465.69 77.0595 464.891C78.5317 464.093 82.6923 461.815 86.3058 459.828C89.9188 457.842 92.9908 456.217 93.132 456.217C93.2732 456.217 95.1942 455.083 97.4008 453.698C99.6069 452.313 102.146 450.849 103.043 450.444C103.94 450.039 105.933 449.002 107.47 448.138C109.008 447.274 111.21 446.044 112.364 445.404C113.517 444.764 116.977 442.812 120.053 441.066C127.212 437.002 149.02 424.844 152.674 422.879C157.184 420.455 160.136 418.826 168.286 414.263C172.515 411.895 176.919 409.441 178.072 408.809C179.226 408.178 180.379 407.496 180.635 407.295C180.892 407.094 183.303 405.777 185.995 404.371C188.686 402.964 193.195 400.497 196.014 398.888C198.833 397.279 202.189 395.392 203.47 394.695C211.74 390.197 228.661 380.834 231.198 379.352C235.329 376.94 244.59 371.867 244.862 371.867C244.984 371.867 246.521 370.988 248.277 369.913C250.033 368.838 253.371 366.99 255.696 365.807C259.973 363.629 263.354 361.277 263.354 360.48C263.354 360.24 263.797 359.571 264.34 358.994C266.423 356.776 265.85 352.952 262.041 343.673C261.042 341.238 258.915 335.537 257.521 331.557C254.912 324.108 252.438 317.224 251.493 314.78C250.449 312.08 249.09 308.203 247.654 303.829C247.276 302.675 246.463 300.473 245.849 298.935C245.235 297.398 243.658 293.099 242.345 289.382C241.032 285.666 239.234 280.633 238.348 278.198C237.463 275.763 236.24 272.302 235.631 270.508C234.199 266.291 231.765 259.586 231.233 258.392C231.004 257.879 230.507 256.516 230.128 255.363C229.748 254.209 228.653 251.169 227.695 248.605C224.737 240.699 222.777 235.186 222.121 232.93C221.775 231.742 220.846 229.298 220.057 227.499C218.492 223.935 218.491 222.157 220.051 219.918C221.281 218.154 249.839 170.546 249.839 170.261C249.839 170.126 250.416 169.136 251.121 168.061C251.826 166.985 252.649 165.689 252.952 165.181C253.254 164.672 254.804 162.159 256.396 159.596C260.73 152.62 261.193 151.558 261.227 148.51C261.255 145.923 261.18 145.748 259.392 144.229C258.367 143.358 257.004 142.379 256.363 142.053C253.494 140.595 248.421 137.728 245.645 135.997C243.979 134.959 240.728 133.067 238.422 131.794C236.115 130.521 233.179 128.828 231.897 128.033C230.616 127.239 228.414 125.994 227.004 125.268C225.594 124.542 224.126 123.746 223.742 123.5C221.137 121.829 211.795 116.393 207.664 114.145C202.796 111.494 198.653 109.118 194.15 106.391C191.587 104.839 188.441 103.013 187.16 102.334C185.878 101.655 182.732 99.8547 180.169 98.3337C177.606 96.8126 173.412 94.3884 170.849 92.946C168.286 91.5042 162.833 88.4243 158.732 86.1016C154.632 83.779 150.228 81.3086 148.946 80.6119C145.335 78.6491 139.555 75.345 135.199 72.753C133.02 71.457 130.503 70.0338 129.606 69.5906C128.709 69.1474 127.099 68.1939 126.027 67.4721C124.956 66.7502 123.959 66.1593 123.812 66.1593C123.665 66.1593 120.916 64.6392 117.704 62.7807C111.204 59.0204 107.676 57.0458 104.208 55.2274C102.927 54.555 100.83 53.348 99.5481 52.5441C96.1341 50.4037 87.5244 45.5217 83.2375 43.2955C81.187 42.2307 78.8802 40.8881 78.1113 40.3121C77.3424 39.7361 75.8744 38.8026 74.8492 38.2383C73.8239 37.6739 71.7269 36.4977 70.189 35.6253C68.6511 34.7525 66.4063 33.5077 65.2003 32.859C63.9942 32.2103 61.0583 30.4921 58.676 29.0414C56.2937 27.5902 52.9813 25.6931 51.3153 24.8253C49.6493 23.9576 46.923 22.4156 45.257 21.3983C43.591 20.3809 41.9134 19.4149 41.5289 19.2513C41.1444 19.0873 40.2007 18.4987 39.4318 17.9423C38.6629 17.3863 36.1464 15.9132 33.8396 14.669C31.5328 13.4242 27.9678 11.3281 25.9173 10.0106C23.8668 8.69274 20.7212 6.80863 18.927 5.823C17.1328 4.83784 15.2343 3.64715 14.7077 3.17741C13.9504 2.50261 8.40944 -0.0707419 7.8684 0.00149091C7.79896 0.0108113 6.58917 0.432559 5.17946 0.938654Z" fill="#88BD54"/>
<path d="M2.79639 500.97C3.1692 503.207 8.07793 502.834 10.4857 502.368L262.835 361.863C265.631 357.576 265.708 355.106 265.398 354.407L218.563 226.019C217.817 224.341 218.874 221.902 219.495 220.893L259.805 153.786C262.229 149.499 260.504 146.097 259.339 144.932L13.9808 3.96118L212.039 214.601C212.784 214.974 212.66 215.999 212.505 216.466L2.79639 500.97Z" fill="#6BA347"/>
<path opacity="0.34" d="M263.999 359.3C260.83 360.418 89.6307 265.475 4.427 217.863L260.038 145.631C262.089 146.935 261.358 150.679 260.737 152.388C247.067 175.223 219.634 220.939 219.261 221.126C218.889 221.312 218.329 223.067 218.096 223.922L262.368 344.853C264.232 349.203 267.168 358.182 263.999 359.3Z" fill="#3F7A42"/>
<path d="M263.999 359.533L151.456 299.417L211.805 217.397C212.737 216.465 212.194 214.99 211.805 214.368L171.029 170.796L260.271 145.398C261.949 147.821 261.281 150.601 260.737 151.689L218.563 221.359C218.951 221.126 219.541 220.846 218.796 221.592C218.05 222.338 218.485 224.543 218.796 225.553L264.465 350.213C266.33 356.924 264.932 359.223 263.999 359.533Z" fill="#3F7A42"/>
</svg>
